<?xml version="1.0" encoding="utf-8"?>
<!-- Generator: Adobe Illustrator 25.4.1, SVG Export Plug-In . SVG Version: 6.00 Build 0)  -->
<svg version="1.1" xmlns="http://www.w3.org/2000/svg" xmlns:xlink="http://www.w3.org/1999/xlink" x="0px" y="0px"
	 viewBox="0 0 998.8 1305.26" style="enable-background:new 0 0 998.8 1305.26;" xml:space="preserve">
<style type="text/css">
	.st0{opacity:0.16;fill:#603913;}
	.st1{fill:#FFBB57;}
	.st2{opacity:0.73;fill:#FFFFFF;}
	.st3{opacity:0.25;fill:#603913;}
	.st4{fill:#FF56A1;}
	.st5{opacity:0.6;}
	.st6{fill:#FFFFFF;}
	.st7{opacity:0.25;}
	.st8{fill:#603913;}
	.st9{opacity:0.47;fill:#FFFFFF;}
	.st10{fill:none;stroke:#3C2415;stroke-width:20;stroke-miterlimit:10;}
	.st11{fill:#3C2415;}
	.st12{opacity:0.35;}
	.st13{fill:#FFF25B;}
	.st14{opacity:0.21;}
	.st15{opacity:0.36;}
	.st16{fill:none;stroke:#3C2415;stroke-width:8;stroke-miterlimit:10;}
	.st17{fill:#F2346D;}
	.st18{fill:#00CFEF;}
</style>
<g id="BACKGROUND">
	<ellipse class="st0" cx="499.4" cy="1270.74" rx="422.11" ry="34.52"/>
</g>
<g id="OBJECTS">
	<g>
		<g>
			<g>
				<path class="st1" d="M840.76,148.72C752.6,62.87,632.17,10,499.4,10C229.11,10,10,229.11,10,499.4
					c0,85.47,21.91,165.84,60.44,235.76c83.27,151.2,244.16,253.63,428.96,253.63c8.9,0,17.75-0.24,26.55-0.72
					c29.64-1.57,58.58-5.8,86.58-12.44c13.13-3.09,26.03-6.73,38.73-10.85c19.61-6.4,38.67-14.01,57.11-22.74
					C874.14,863.67,988.8,694.93,988.8,499.4C988.8,361.88,932.08,237.61,840.76,148.72z M499.37,610.42
					c-61.32,0-111.02-49.7-111.02-111.02s49.7-111.02,111.02-111.02s111.02,49.7,111.02,111.02S560.69,610.42,499.37,610.42z"/>
				<path class="st2" d="M840.76,148.72C752.6,62.87,632.17,10,499.4,10C229.11,10,10,229.11,10,499.4
					c0,85.47,21.91,165.84,60.44,235.76c-27.88-61.48-43.4-129.77-43.4-201.67c0-141.9,60.41-269.66,156.89-359.05
					c12.27,10.56,46.87,2.83,81.06-18.85c36.61-23.21,58.96-53.67,50.32-68.39c61.35-27.69,129.44-43.11,201.13-43.11
					c168.46,0,317.02,85.13,405.06,214.68C899.77,218.35,872.52,181.33,840.76,148.72z"/>
				<path class="st3" d="M869.46,179.12c57.84,80.39,91.94,178.99,91.94,285.57c0,102.12-31.27,196.93-84.79,275.38
					c-8.12,11.9-26.73,5.23-25.5-9.12c4.24-49.32,4.89-104.34,10.44-120.54c12.3-35.91,36.98-36.51,49.11-77.16
					c4.69-15.72,1.79-29.3-9.71-43.73c0.66,3.24,1.04,6.54,1.04,9.88c0,40.92-51.96,73.11-63.93,110.02
					c-12.42,38.26,15.7,196.12-66.91,221.54c-39.35,12.09-58.36,36.47-63.95,62.96c-8.59,4.74-17.34,9.19-26.22,13.4
					c-18.44,8.73-37.5,16.34-57.11,22.74c-12.7,4.12-25.6,7.76-38.73,10.85c-23.36,5.54-47.38,9.4-71.92,11.42c0,0,0,0,0,0
					c-20.68-45.88-53.82-73.94-101.39-70.88c-12.92,3.43-25.37,4.66-36.88,0.91c-38.26-12.39-52.97-71.74-84.8-94.94
					c-32.15-23.41-93.08-19.22-116.49-51.37c-6.89-9.47-9.72-21.12-10.64-33.8c-1.46,23.7-2.08,46.89,10.55,63.34
					c24.04,31.29,66.81,24.8,99.83,47.57c32.68,22.58,48.35,73.14,87.64,85.19c11.82,3.64,43.84,12.06,57.11,8.72
					c39.62-2.42,62.76,47.01,53.85,47.01c-147.82,0-280.33-65.53-370.06-169.12C190.78,908.4,335.7,988.78,499.4,988.78
					c8.9,0,17.75-0.24,26.55-0.72c29.64-1.57,58.58-5.8,86.58-12.44c13.13-3.09,26.03-6.73,38.73-10.85
					c19.61-6.4,38.67-14.01,57.11-22.74c3.78-1.78,7.52-3.61,11.23-5.5c159.7-80.56,269.2-246.05,269.2-437.13
					C988.8,376.92,943.81,264.95,869.46,179.12z"/>
				<path class="st4" d="M838.05,389.33c-12.42-38.26,10.23-94.75-12.97-126.6c-23.41-32.19-84.28-27.98-116.44-51.4
					c-31.88-23.17-46.56-82.52-84.82-94.94c-36.95-11.97-83.52,27.01-124.46,27.01c-40.92,0-87.51-38.99-124.42-27.01
					c-38.26,12.42-52.97,71.78-84.8,94.94c-32.15,23.43-93.08,19.22-116.49,51.4c-23.2,31.84-0.52,88.34-12.94,126.6
					c-12.01,36.91-63.93,69.14-63.93,110.07c0,40.92,51.92,73.11,63.93,110.02c12.42,38.26-10.26,94.75,12.94,126.63
					c23.41,32.15,84.34,27.96,116.49,51.37c31.83,23.2,46.54,82.56,84.8,94.94c11.51,3.74,23.96,2.52,36.88-0.91
					c55.46-3.57,91.32,35.14,110.68,95.1c1.22,3.74,2.38,7.59,3.45,11.51c12.33,44.26,16.4,98.58,13.42,155.41
					c-7.47,142.05,98.69,103.19,64.31,2.24c-16.08-47.13-20.11-125.42,8.85-170.09c3.67-5.68,7.87-10.8,12.64-15.25
					c8.04-7.5,13.99-5.55,21.86,0.67c1.5,1.19,2.92,2.43,4.23,3.73c45.7,44.47-20.56,139.95,34.67,144.31
					c46.28,3.62,30.07-107.83,22.44-167.05c-0.55-4.38-1.07-8.49-1.52-12.23c-0.91-7.75-1.48-13.97-1.48-18.11
					c0-32.88,17.73-65.96,65.77-80.73c82.61-25.43,54.49-183.28,66.91-221.54c11.97-36.92,63.93-69.1,63.93-110.02
					C901.98,458.47,850.02,426.24,838.05,389.33z M499.37,610.42c-61.32,0-111.02-49.7-111.02-111.02s49.7-111.02,111.02-111.02
					s111.02,49.7,111.02,111.02S560.69,610.42,499.37,610.42z"/>
				<g class="st5">
					<path class="st6" d="M724.72,235.98c28.79,20.97,80.58,19.81,107.91,42.44c-1.69-5.68-4.1-10.96-7.55-15.69
						c-23.41-32.19-84.28-27.98-116.44-51.4c-8.29-6.03-15.41-14.51-22.1-23.97C698.3,205.79,709.57,224.97,724.72,235.98z"/>
					<path class="st6" d="M112.86,524.06c0-40.93,51.92-73.16,63.93-110.07c12.42-38.26-10.26-94.75,12.94-126.6
						c23.41-32.19,84.34-27.98,116.49-51.41c31.83-23.17,46.54-82.52,84.8-94.94c36.92-11.97,83.51,27.01,124.42,27.01
						c40.93,0,87.51-38.99,124.46-27.01c15.34,4.98,26.88,17.5,37.26,32.21c-15.19-23.82-29.8-49.22-53.34-56.87
						c-36.95-11.97-83.52,27.01-124.46,27.01c-40.92,0-87.51-38.99-124.42-27.01c-38.26,12.42-52.97,71.78-84.8,94.94
						c-32.15,23.43-93.08,19.22-116.49,51.4c-23.2,31.84-0.52,88.34-12.94,126.6c-12.01,36.91-63.93,69.14-63.93,110.07
						c0,18.11,10.17,34.51,22.55,50.36C115.34,541.52,112.86,533,112.86,524.06z"/>
					<path class="st6" d="M555.45,1168.12c2.98-56.82-1.09-111.14-13.42-155.41c-1.07-3.92-2.23-7.76-3.45-11.51
						c-7.55-23.39-17.63-43.53-30.38-59.2c5.5,10.47,10.27,22.03,14.31,34.54c1.22,3.74,2.38,7.59,3.45,11.51
						c12.33,44.26,16.4,98.58,13.42,155.41c-2.59,49.24,8.48,76.72,22.61,87.44C556.79,1216.12,554.01,1195.49,555.45,1168.12z"/>
					<path class="st6" d="M667.33,989.43c-0.79-0.78-1.62-1.53-2.48-2.27c14.41,45.37-21.54,110.29,13.87,120.66
						C677.02,1075.27,698.91,1020.17,667.33,989.43z"/>
					<path class="st6" d="M176.79,634.08c-3.62-11.13-10.87-21.82-19.23-32.46c1.22,2.58,2.3,5.18,3.15,7.8
						c12.42,38.26-10.26,94.75,12.94,126.63c2.45,3.37,5.33,6.31,8.53,8.96C172.51,712.45,187.37,666.66,176.79,634.08z"/>
				</g>
				<g class="st7">
					<path class="st8" d="M421.24,578.27c-20.31-20.12-32.9-48.02-32.9-78.87c0-61.32,49.7-111.02,111.02-111.02
						c22.05,0,42.58,6.45,59.86,17.54c-20.06-19.87-47.65-32.15-78.12-32.15c-61.32,0-111.02,49.7-111.02,111.02
						C370.08,524.06,390.48,558.54,421.24,578.27z"/>
					<path class="st8" d="M838.05,389.33c-12.42-38.26,10.23-94.75-12.97-126.6c-5.03-6.92-11.79-12.14-19.63-16.33
						c0.46,0.57,0.93,1.13,1.36,1.72c23.2,31.84,0.55,88.34,12.97,126.6c11.97,36.91,63.93,69.14,63.93,110.07
						c0,40.92-51.96,73.11-63.93,110.02c-12.42,38.26,15.7,196.12-66.91,221.54c-48.04,14.77-65.77,47.85-65.77,80.73
						c0,4.14,0.57,10.37,1.48,18.11c0.45,3.74,0.97,7.85,1.52,12.23c7.62,59.22,23.84,170.67-22.44,167.05
						c-1.11-0.09-2.15-0.22-3.16-0.38c2.81,8.49,9.08,14.02,21.42,15c46.28,3.62,30.07-107.83,22.44-167.05
						c-0.55-4.38-1.07-8.49-1.52-12.23c-0.91-7.75-1.48-13.97-1.48-18.11c0-32.88,17.73-65.96,65.77-80.73
						c82.61-25.43,54.49-183.28,66.91-221.54c11.97-36.92,63.93-69.1,63.93-110.02C901.98,458.47,850.02,426.24,838.05,389.33z"/>
					<path class="st8" d="M393.56,866.84c-12.92,3.43-25.37,4.66-36.88,0.91c-2.65-0.86-5.17-1.96-7.61-3.24
						c7.5,8.16,15.88,14.62,25.87,17.85c11.51,3.74,23.96,2.52,36.88-0.91c20.87-1.34,38.96,3.3,54.45,12.82
						C447.34,875.16,423.26,864.93,393.56,866.84z"/>
					<path class="st8" d="M632.99,950.16c-1.31-1.29-2.73-2.54-4.23-3.73c-7.87-6.23-13.82-8.18-21.86-0.67
						c-4.78,4.45-8.97,9.57-12.64,15.25c-28.96,44.66-24.93,122.96-8.85,170.09c19.97,58.63-7.47,96.31-32.53,89.77
						c25.73,39.43,75.98-1.19,50.79-75.15c-16.08-47.13-20.11-125.42,8.85-170.09c3.67-5.68,7.87-10.8,12.64-15.25
						c4.76-4.44,8.78-5.55,12.9-4.45C636.55,953.93,634.87,952,632.99,950.16z"/>
				</g>
				<path class="st9" d="M684.58,499.39c2.86,24.25-0.63,49.5-9.39,72.82c-8.76,23.35-22.82,44.8-40.72,62.26
					c-17.87,17.48-39.53,31.01-62.88,39.21c-23.33,8.18-48.34,11.09-72.19,7.79c-1.76-0.24-2.98-1.86-2.74-3.62
					c0.2-1.45,1.34-2.54,2.72-2.74l0.02,0c22.99-3.32,44.81-9.62,64.74-19.41c19.93-9.71,37.93-22.75,53.18-38.39
					c15.23-15.67,27.72-33.87,36.88-53.8c9.21-19.94,14.93-41.52,17.8-64.11l0.01-0.06c0.44-3.47,3.61-5.93,7.08-5.48
					C682.04,494.23,684.25,496.57,684.58,499.39z"/>
			</g>
			<g>
				<g>
					<g>
						<g>
							<path class="st10" d="M838.05,389.33c-12.42-38.26,10.23-94.75-12.96-126.59c-23.42-32.19-84.3-27.99-116.45-51.41
								c-31.87-23.16-46.55-82.52-84.81-94.94c-36.95-11.98-83.53,27.01-124.46,27.01c-40.93,0-87.51-38.99-124.43-27.01
								c-38.26,12.42-52.97,71.78-84.81,94.94c-32.16,23.42-93.07,19.22-116.49,51.41c-23.2,31.84-0.51,88.33-12.93,126.59
								c-12.01,36.92-63.93,69.14-63.93,110.07c0,40.93,51.92,73.11,63.93,110.03c12.42,38.26-10.26,94.75,12.93,126.62
								c23.42,32.16,84.33,27.96,116.49,51.38c31.84,23.2,46.55,82.55,84.81,94.94c11.5,3.75,23.96,2.51,36.89-0.92
								c55.45-3.56,91.32,35.14,110.67,95.1c15,46.2,20.11,105.08,16.87,166.91c-7.47,142.06,98.69,103.18,64.3,2.25
								c-18.1-53.13-20.93-145.79,21.49-185.34c8.05-7.5,13.99-5.57,21.87,0.67c53.83,42.62-17.93,143.55,38.88,148.03
								c49.73,3.91,27.33-124.97,20.94-179.27c-0.92-7.75-1.49-13.98-1.49-18.11c0-32.89,17.73-65.96,65.77-80.74
								c82.61-25.42,54.49-183.27,66.92-221.53c11.98-36.92,63.93-69.11,63.93-110.03C901.98,458.47,850.03,426.25,838.05,389.33z
								 M499.37,610.41c-61.32,0-111.02-49.7-111.02-111.02c0-61.32,49.7-111.02,111.02-111.02s111.02,49.7,111.02,111.02
								C610.39,560.72,560.69,610.41,499.37,610.41z"/>
						</g>
					</g>
				</g>
				<g>
					<g>
						<path class="st11" d="M499.4,998.78c-67.41,0-132.82-13.21-194.39-39.25c-59.47-25.15-112.88-61.16-158.74-107.02
							c-45.86-45.86-81.87-99.26-107.02-158.73C13.21,632.21,0,566.81,0,499.4c0-67.41,13.21-132.82,39.25-194.39
							c25.15-59.47,61.16-112.88,107.02-158.74c45.86-45.86,99.27-81.87,158.74-107.02C366.58,13.21,431.99,0,499.4,0
							c67.41,0,132.82,13.21,194.39,39.25c59.47,25.15,112.88,61.16,158.74,107.02c45.86,45.86,81.87,99.27,107.02,158.74
							c26.04,61.58,39.25,126.98,39.25,194.39c0,96.45-27.54,190.05-79.65,270.68c-50.75,78.53-122.16,141.12-206.51,180.99
							l-8.55-18.08C870.97,854.1,978.8,683.91,978.8,499.4C978.8,235.06,763.74,20,499.4,20C235.06,20,20,235.06,20,499.4
							c0,264.33,215.06,479.38,479.4,479.38c8.68,0,17.43-0.24,26-0.71l1.1,19.97C517.56,998.53,508.45,998.78,499.4,998.78z"/>
					</g>
				</g>
				<g>
					<g>
						<path class="st11" d="M614.82,985.35l-4.58-19.47c12.52-2.95,25.28-6.52,37.93-10.63l6.18,19.02
							C641.17,978.56,627.87,982.28,614.82,985.35z"/>
					</g>
				</g>
			</g>
		</g>
		<g>
			<g class="st12">
				<path class="st8" d="M356.75,541.65C356.75,541.65,356.75,541.65,356.75,541.65C356.75,541.65,356.75,541.65,356.75,541.65
					C356.75,541.65,356.75,541.65,356.75,541.65c-2.64-5.46-9.18-7.72-14.63-5.08l-13.77,6.68c0.02-0.01,0.04-0.01,0.05-0.02
					l-11.95,5.79c0.02-0.01,0.03-0.02,0.05-0.03l-13.77,6.68c-0.49,0.24-0.94,0.51-1.37,0.81c-0.07,0.05-0.14,0.1-0.21,0.15
					c-0.34,0.25-0.67,0.51-0.98,0.79c-0.09,0.08-0.18,0.16-0.27,0.25c-0.29,0.28-0.57,0.58-0.82,0.89
					c-0.06,0.07-0.13,0.14-0.19,0.22c-0.29,0.38-0.57,0.77-0.81,1.18c-0.07,0.12-0.13,0.25-0.2,0.38c-0.15,0.28-0.3,0.57-0.42,0.87
					c-0.08,0.2-0.16,0.39-0.23,0.59c-0.09,0.24-0.16,0.48-0.23,0.72c-0.06,0.22-0.13,0.44-0.18,0.67c-0.01,0.05-0.03,0.09-0.04,0.13
					c-0.04,0.17-0.05,0.35-0.07,0.52c-0.04,0.26-0.09,0.52-0.11,0.78c-0.01,0.1-0.01,0.21-0.01,0.31c-0.01,0.12,0,0.25-0.01,0.37
					c-0.01,0.26-0.03,0.52-0.01,0.78c0.01,0.21,0.04,0.41,0.06,0.62c0.01,0.06,0.01,0.13,0.02,0.19c0.07,0.52,0.17,1.05,0.32,1.57
					c0.03,0.09,0.06,0.19,0.09,0.28c0.16,0.52,0.35,1.04,0.59,1.55c0,0,0,0.01,0,0.01c0,0,0,0,0,0c0,0,0,0,0,0
					c0.19,0.39,0.4,0.76,0.63,1.12c0.07,0.1,0.14,0.2,0.21,0.3c0.17,0.25,0.36,0.5,0.55,0.74c0.08,0.1,0.17,0.2,0.25,0.3
					c0.21,0.23,0.42,0.46,0.64,0.67c0.07,0.07,0.15,0.15,0.22,0.22c0.69,0.63,1.46,1.15,2.28,1.58c0.07,0.04,0.14,0.07,0.2,0.11
					c2.19,1.09,4.72,1.43,7.19,0.89c0.01,0,0.03-0.01,0.04-0.01c0.4-0.09,0.79-0.2,1.18-0.33c0.01,0,0.02-0.01,0.03-0.01
					c0.4-0.14,0.8-0.3,1.19-0.49l39.4-19.1C357.12,553.64,359.39,547.09,356.75,541.65C356.75,541.65,356.75,541.65,356.75,541.65z"
					/>
				<path class="st8" d="M481.11,341.88c0.18-0.25,0.35-0.51,0.51-0.78c0.05-0.09,0.11-0.18,0.16-0.27c0.46-0.83,0.8-1.7,1.03-2.61
					c0.02-0.07,0.04-0.14,0.05-0.21c0.12-0.52,0.21-1.04,0.25-1.57c0,0,0-0.01,0-0.01c0.22-2.71-0.55-5.51-2.39-7.79l-27.56-34.02
					c-3.81-4.7-10.7-5.42-15.4-1.62c0,0,0,0,0,0c0,0,0,0,0,0c0,0,0,0,0,0c0,0,0,0,0,0c-4.71,3.81-5.43,10.69-1.62,15.4l9.63,11.89
					c-0.01-0.01-0.02-0.03-0.03-0.05l8.36,10.32c-0.01-0.01-0.03-0.03-0.04-0.04l9.63,11.89c0.34,0.42,0.71,0.8,1.1,1.15
					c0.07,0.06,0.14,0.12,0.2,0.17c0.32,0.28,0.64,0.53,0.98,0.77c0.1,0.07,0.21,0.14,0.32,0.21c0.33,0.21,0.67,0.4,1.01,0.57
					c0.1,0.05,0.21,0.11,0.31,0.16c0.44,0.2,0.88,0.38,1.34,0.52c0.12,0.04,0.25,0.06,0.37,0.09c0.33,0.09,0.66,0.17,0.99,0.23
					c0.22,0.04,0.44,0.06,0.66,0.09c0.24,0.03,0.48,0.05,0.72,0.06c0.25,0.01,0.49,0.02,0.74,0.01c0.06,0,0.12,0.01,0.19,0
					c0.16-0.01,0.32-0.03,0.48-0.05c0.25-0.02,0.49-0.03,0.74-0.07c0.12-0.02,0.24-0.05,0.36-0.07c0.11-0.02,0.22-0.05,0.33-0.07
					c0.24-0.05,0.48-0.09,0.71-0.16c0.22-0.06,0.44-0.15,0.66-0.23c0.05-0.02,0.1-0.03,0.15-0.05c0.49-0.18,0.97-0.41,1.44-0.66
					c0.09-0.05,0.17-0.1,0.26-0.15c0.46-0.27,0.91-0.57,1.34-0.92c0,0,0,0,0.01,0c0,0,0,0,0,0c0,0,0,0,0,0
					c0.34-0.27,0.65-0.57,0.95-0.87c0.09-0.09,0.16-0.18,0.25-0.27c0.21-0.23,0.4-0.46,0.59-0.7
					C480.96,342.09,481.04,341.98,481.11,341.88z"/>
				<path class="st8" d="M658.68,847.28c0.18-0.25,0.35-0.51,0.51-0.78c0.05-0.09,0.11-0.18,0.16-0.27c0.46-0.83,0.8-1.7,1.03-2.6
					c0.02-0.07,0.04-0.14,0.05-0.21c0.12-0.52,0.21-1.04,0.25-1.57c0,0,0-0.01,0-0.01c0.23-2.72-0.54-5.52-2.39-7.8l-27.56-34.02
					c-3.81-4.7-10.7-5.42-15.4-1.62c0,0,0,0,0,0c0,0,0,0,0,0c0,0,0,0,0,0c0,0,0,0,0,0c-4.71,3.81-5.43,10.69-1.62,15.4l9.64,11.89
					c-0.01-0.01-0.02-0.03-0.03-0.05l8.36,10.32c-0.01-0.01-0.03-0.03-0.04-0.04l9.64,11.89c0.34,0.42,0.71,0.8,1.1,1.15
					c0.07,0.06,0.13,0.11,0.2,0.17c0.32,0.28,0.65,0.54,0.99,0.77c0.1,0.07,0.21,0.14,0.31,0.21c0.33,0.21,0.67,0.4,1.01,0.57
					c0.1,0.05,0.21,0.11,0.31,0.16c0.44,0.2,0.88,0.38,1.34,0.52c0.12,0.04,0.25,0.06,0.37,0.09c0.33,0.09,0.66,0.17,0.99,0.23
					c0.22,0.04,0.44,0.06,0.66,0.09c0.24,0.03,0.48,0.05,0.73,0.06c0.24,0.01,0.49,0.02,0.73,0.01c0.06,0,0.13,0.01,0.19,0
					c0.16-0.01,0.32-0.03,0.49-0.05c0.25-0.02,0.49-0.03,0.74-0.07c0.12-0.02,0.24-0.05,0.36-0.07c0.11-0.02,0.22-0.05,0.33-0.07
					c0.23-0.05,0.47-0.09,0.7-0.15c0.22-0.06,0.44-0.15,0.66-0.22c0.05-0.02,0.1-0.03,0.15-0.05c0.49-0.18,0.97-0.41,1.43-0.66
					c0.09-0.05,0.17-0.1,0.26-0.15c0.46-0.27,0.92-0.57,1.35-0.92c0,0,0,0,0,0c0,0,0,0,0,0c0,0,0,0,0,0
					c0.34-0.27,0.65-0.57,0.95-0.87c0.09-0.09,0.16-0.18,0.24-0.27c0.21-0.23,0.41-0.46,0.59-0.7
					C658.52,847.49,658.6,847.39,658.68,847.28z"/>
				<path class="st8" d="M747.53,371.42c0.01-0.01,0.01-0.02,0.02-0.03c0.21-0.37,0.4-0.75,0.57-1.16l16.85-40.42
					c2.33-5.58-0.31-11.99-5.89-14.32c0,0,0,0,0,0c0,0,0,0,0,0c0,0,0,0,0,0c0,0,0,0,0,0c-5.59-2.33-11.99,0.3-14.32,5.89
					l-5.89,14.13c0.01-0.02,0.02-0.03,0.02-0.05l-5.11,12.26c0.01-0.02,0.01-0.03,0.02-0.05l-5.89,14.13
					c-0.21,0.5-0.36,1.01-0.49,1.51c-0.02,0.09-0.04,0.17-0.06,0.26c-0.1,0.41-0.17,0.83-0.21,1.24c-0.01,0.12-0.03,0.24-0.04,0.36
					c-0.03,0.41-0.04,0.82-0.02,1.22c0,0.09,0,0.19,0,0.28c0.03,0.48,0.09,0.95,0.18,1.42c0.03,0.14,0.07,0.28,0.1,0.41
					c0.07,0.31,0.16,0.63,0.26,0.93c0.07,0.2,0.14,0.4,0.22,0.6c0.09,0.24,0.2,0.47,0.31,0.7c0.1,0.21,0.2,0.41,0.31,0.62
					c0.02,0.04,0.04,0.08,0.06,0.12c0.09,0.15,0.2,0.29,0.29,0.44c0.14,0.22,0.28,0.45,0.43,0.66c0.06,0.08,0.13,0.16,0.2,0.24
					c0.08,0.1,0.16,0.19,0.24,0.28c0.17,0.2,0.32,0.41,0.51,0.59c0.08,0.08,0.18,0.14,0.27,0.22c0.31,0.29,0.64,0.56,0.98,0.82
					c0.18,0.14,0.36,0.29,0.55,0.42c0.56,0.37,1.15,0.7,1.8,0.97c0,0,0,0,0,0s0,0,0,0c0.4,0.17,0.81,0.3,1.21,0.42
					c0.12,0.03,0.24,0.06,0.35,0.09c0.3,0.07,0.6,0.14,0.89,0.19c0.13,0.02,0.26,0.04,0.39,0.06c0.31,0.04,0.62,0.06,0.93,0.08
					c0.1,0,0.21,0.01,0.31,0.01c0.94,0.01,1.86-0.11,2.75-0.33c0.07-0.02,0.15-0.04,0.22-0.06c2.36-0.64,4.48-2.06,5.97-4.09
					c0.01-0.01,0.02-0.03,0.03-0.04C747.1,372.12,747.33,371.78,747.53,371.42z"/>
				<path class="st8" d="M673.57,571.11c-0.01-0.06-0.02-0.11-0.03-0.17c-0.1-0.59-0.25-1.18-0.45-1.74
					c-0.01-0.03-0.02-0.07-0.03-0.1c-0.01-0.03-0.03-0.05-0.04-0.08c-0.21-0.56-0.45-1.1-0.75-1.62c-0.01-0.03-0.02-0.06-0.04-0.08
					c-0.02-0.03-0.04-0.06-0.06-0.09c-0.3-0.52-0.65-1.01-1.04-1.47c-0.04-0.04-0.08-0.09-0.11-0.13c-0.4-0.47-0.84-0.9-1.33-1.3
					c-0.03-0.02-0.06-0.05-0.09-0.07c-0.78-0.63-1.66-1.17-2.64-1.57c0,0,0,0,0,0c0,0,0,0,0,0c0,0,0,0,0,0c0,0,0,0,0,0
					c-5.59-2.33-11.99,0.3-14.32,5.89l-5.89,14.13c0.01-0.02,0.02-0.03,0.02-0.05l-5.11,12.26c0.01-0.02,0.01-0.04,0.02-0.05
					l-5.89,14.13c-0.21,0.5-0.36,1.01-0.49,1.52c-0.02,0.09-0.04,0.17-0.06,0.26c-0.1,0.41-0.17,0.83-0.21,1.24
					c-0.01,0.12-0.03,0.24-0.04,0.36c-0.03,0.41-0.04,0.81-0.02,1.22c0,0.1,0,0.19,0.01,0.29c0.03,0.48,0.09,0.96,0.18,1.43
					c0.03,0.13,0.07,0.26,0.1,0.39c0.08,0.33,0.16,0.65,0.27,0.96c0.07,0.2,0.14,0.39,0.22,0.58c0.1,0.24,0.2,0.48,0.32,0.72
					c0.1,0.2,0.2,0.4,0.31,0.6c0.03,0.05,0.05,0.1,0.07,0.14c0.09,0.16,0.21,0.31,0.31,0.46c0.14,0.21,0.26,0.42,0.41,0.62
					c0.06,0.08,0.13,0.16,0.2,0.24c0.08,0.1,0.17,0.2,0.26,0.3c0.16,0.19,0.32,0.39,0.5,0.58c0.08,0.08,0.18,0.14,0.26,0.21
					c0.31,0.3,0.65,0.57,0.99,0.83c0.18,0.13,0.34,0.28,0.53,0.4c0.56,0.37,1.15,0.7,1.79,0.97c0,0,0,0,0,0c0,0,0,0,0,0
					c0.4,0.17,0.8,0.3,1.21,0.42c0.11,0.03,0.23,0.06,0.34,0.08c0.3,0.08,0.61,0.14,0.91,0.19c0.12,0.02,0.24,0.04,0.36,0.05
					c0.32,0.04,0.64,0.07,0.95,0.08c0.09,0,0.18,0.01,0.28,0.01c0.95,0.01,1.89-0.1,2.8-0.33c0.06-0.02,0.12-0.03,0.18-0.05
					c2.39-0.64,4.54-2.08,6.03-4.15c0,0,0-0.01,0.01-0.01c0.24-0.33,0.47-0.68,0.67-1.04c0,0,0-0.01,0.01-0.01
					c0.21-0.37,0.4-0.75,0.56-1.15L672.86,577c0.27-0.65,0.47-1.31,0.61-1.97c0-0.01,0-0.02,0.01-0.02c0.13-0.64,0.2-1.29,0.22-1.93
					c0-0.04,0-0.08,0.01-0.12C673.71,572.34,673.66,571.72,673.57,571.11z"/>
				<path class="st8" d="M614.11,388.7c0,0.04,0.01,0.09,0.01,0.13c0.01,0.16,0.02,0.33,0.02,0.49c0.01,0.17,0.01,0.34,0.03,0.5
					c0,0.01,0,0.02,0.01,0.04c0.01,0.14,0.05,0.27,0.07,0.4c0.04,0.25,0.08,0.49,0.13,0.73c0.03,0.14,0.05,0.27,0.08,0.41
					c0.05,0.2,0.13,0.39,0.19,0.58c0,0.01,0,0.01,0.01,0.02c0.07,0.21,0.12,0.42,0.2,0.63c0.03,0.07,0.06,0.15,0.09,0.22
					c0.09,0.23,0.21,0.44,0.32,0.66c0.09,0.19,0.17,0.39,0.27,0.57c0.04,0.06,0.08,0.13,0.11,0.19c0.12,0.2,0.26,0.39,0.39,0.58
					c0.14,0.2,0.27,0.4,0.42,0.59c0.06,0.08,0.11,0.16,0.17,0.23c0.12,0.15,0.26,0.27,0.39,0.41c0.13,0.14,0.25,0.28,0.39,0.41
					c0.16,0.15,0.32,0.29,0.49,0.44c0.2,0.18,0.41,0.36,0.62,0.52c0.02,0.01,0.03,0.03,0.05,0.04c0.1,0.07,0.2,0.13,0.3,0.2
					c0.25,0.17,0.49,0.35,0.75,0.5c0.09,0.05,0.19,0.1,0.28,0.15c0.1,0.05,0.2,0.1,0.29,0.15c0.21,0.11,0.41,0.22,0.62,0.31
					c0.22,0.09,0.45,0.17,0.68,0.25c0.05,0.02,0.09,0.03,0.14,0.05c0.49,0.16,1,0.29,1.52,0.38c0.1,0.02,0.2,0.03,0.3,0.05
					c0.53,0.08,1.06,0.13,1.61,0.13c0,0,0,0,0.01,0c0,0,0,0,0,0s0,0,0,0c0.43,0,0.86-0.03,1.28-0.08c0.12-0.01,0.24-0.04,0.36-0.05
					c0.3-0.05,0.6-0.1,0.9-0.17c0.13-0.03,0.25-0.06,0.38-0.1c0.3-0.08,0.59-0.18,0.88-0.29c0.1-0.04,0.2-0.07,0.29-0.11
					c0.8-0.32,1.55-0.74,2.24-1.23c0.09-0.06,0.17-0.13,0.25-0.19c0.28-0.21,0.55-0.44,0.81-0.68c0.07-0.07,0.15-0.13,0.21-0.2
					c0.31-0.3,0.61-0.62,0.88-0.96c0.04-0.05,0.08-0.11,0.12-0.17c0.23-0.29,0.44-0.59,0.63-0.9c0.07-0.11,0.13-0.21,0.19-0.32
					c0.18-0.31,0.35-0.64,0.5-0.97c0.03-0.07,0.07-0.14,0.1-0.21c0.17-0.4,0.32-0.81,0.44-1.24c0.03-0.1,0.05-0.21,0.08-0.32
					c0.09-0.34,0.16-0.68,0.22-1.03c0.02-0.13,0.04-0.25,0.06-0.38c0.06-0.45,0.1-0.91,0.1-1.37v0v-15.31v-28.48
					c0-6.05-4.9-10.95-10.95-10.95c0,0,0,0,0,0s0,0,0,0c0,0,0,0-0.01,0s0,0-0.01,0c-6.04,0-10.95,4.89-10.95,10.95v15.31
					c0-0.09,0.01-0.17,0.01-0.26V388.7z"/>
				<path class="st8" d="M442.76,822.62c0.06-0.12,0.12-0.23,0.17-0.35c0.13-0.28,0.25-0.57,0.36-0.86c0.04-0.1,0.08-0.19,0.11-0.29
					c0.28-0.82,0.45-1.65,0.53-2.5c0.01-0.1,0.01-0.21,0.02-0.31c0.02-0.35,0.03-0.71,0.02-1.06c0-0.1,0-0.19-0.01-0.28
					c-0.03-0.43-0.07-0.87-0.15-1.3c-0.01-0.07-0.03-0.13-0.04-0.2c-0.07-0.36-0.16-0.72-0.27-1.07c-0.04-0.12-0.07-0.24-0.11-0.35
					c-0.12-0.34-0.25-0.68-0.41-1.01c-0.03-0.07-0.06-0.14-0.09-0.21c-0.19-0.39-0.41-0.77-0.65-1.14
					c-0.06-0.09-0.13-0.18-0.19-0.27c-0.2-0.29-0.41-0.56-0.64-0.83c-0.08-0.1-0.16-0.19-0.25-0.29c-0.31-0.34-0.63-0.67-0.98-0.97
					l0,0c0,0,0,0,0,0l-11.61-9.98c0,0,0,0,0,0l-21.59-18.57c-4.58-3.94-11.5-3.42-15.44,1.16c0,0,0,0,0,0c0,0,0,0,0,0
					c0,0,0,0,0,0.01c0,0,0,0,0,0c-3.94,4.58-3.43,11.49,1.16,15.44l11.61,9.98c-0.07-0.06-0.12-0.12-0.19-0.18l21.79,18.74
					c0.03,0.03,0.07,0.05,0.11,0.08c0.22,0.18,0.45,0.36,0.68,0.53c0.03,0.02,0.07,0.05,0.1,0.08c0.08,0.05,0.16,0.09,0.23,0.15
					c0.05,0.03,0.11,0.06,0.16,0.09c0.26,0.16,0.52,0.31,0.79,0.45c0.12,0.06,0.24,0.14,0.36,0.2c0.13,0.06,0.27,0.11,0.41,0.17
					c0.25,0.11,0.5,0.21,0.75,0.3c0.07,0.02,0.13,0.05,0.2,0.07c0.26,0.09,0.53,0.14,0.8,0.21c0.22,0.05,0.44,0.12,0.66,0.16
					c0.3,0.05,0.6,0.08,0.9,0.1c0.16,0.02,0.33,0.04,0.49,0.04c0.09,0,0.18,0.02,0.27,0.02c0.32,0.01,0.63-0.01,0.95-0.03
					c0.03,0,0.06,0,0.09,0c0.41-0.03,0.82-0.08,1.23-0.16c0.02,0,0.03-0.01,0.05-0.01c0.37-0.07,0.74-0.17,1.1-0.28
					c0.1-0.03,0.21-0.05,0.31-0.08c0.07-0.02,0.13-0.05,0.19-0.07c0.1-0.04,0.2-0.09,0.3-0.13c0.29-0.11,0.58-0.22,0.87-0.36
					c0.09-0.04,0.16-0.11,0.25-0.15c0.39-0.21,0.76-0.45,1.13-0.71c0.18-0.13,0.38-0.24,0.55-0.38c0.53-0.42,1.04-0.89,1.5-1.43
					c0,0,0,0,0,0c0,0,0,0,0,0c0.28-0.33,0.54-0.67,0.77-1.03c0.07-0.1,0.13-0.21,0.19-0.31
					C442.47,823.15,442.62,822.89,442.76,822.62z"/>
				<path class="st8" d="M720.45,673.25C720.45,673.25,720.45,673.25,720.45,673.25C720.45,673.24,720.45,673.24,720.45,673.25
					C720.45,673.24,720.44,673.24,720.45,673.25c-0.01-0.01-0.01-0.01-0.01-0.01c-4.68-3.81-11.57-3.12-15.4,1.57l-9.67,11.87
					c0.06-0.07,0.12-0.13,0.17-0.19l-18.15,22.28c-0.07,0.09-0.12,0.19-0.19,0.28c-0.22,0.3-0.45,0.6-0.64,0.91
					c-0.03,0.04-0.04,0.09-0.07,0.13c-0.16,0.27-0.3,0.54-0.43,0.82c-0.06,0.13-0.14,0.25-0.19,0.37c-0.06,0.12-0.09,0.25-0.14,0.38
					c-0.1,0.26-0.2,0.52-0.28,0.78c-0.02,0.07-0.05,0.13-0.07,0.2c-0.07,0.25-0.12,0.51-0.18,0.77c-0.05,0.22-0.1,0.45-0.14,0.67
					c-0.05,0.32-0.07,0.64-0.08,0.96c-0.01,0.15-0.03,0.29-0.03,0.44c0,0.09-0.02,0.17-0.02,0.26c0,0.24,0.03,0.48,0.05,0.72
					c0.01,0.15,0.02,0.3,0.03,0.45c0.03,0.22,0.07,0.44,0.11,0.65c0.05,0.26,0.09,0.52,0.15,0.78c0,0.01,0,0.03,0.01,0.04
					c0.03,0.1,0.07,0.2,0.09,0.3c0.09,0.31,0.17,0.61,0.29,0.91c0.04,0.1,0.09,0.19,0.12,0.28c0.04,0.1,0.09,0.2,0.13,0.3
					c0.09,0.21,0.18,0.42,0.28,0.63c0.06,0.11,0.15,0.21,0.21,0.32c0.21,0.37,0.45,0.72,0.71,1.06c0.14,0.18,0.26,0.37,0.41,0.54
					c0.43,0.51,0.9,0.99,1.43,1.43c0,0,0,0,0,0c0,0,0,0,0,0c0.34,0.27,0.69,0.52,1.05,0.75c0.1,0.07,0.21,0.12,0.31,0.19
					c0.26,0.16,0.53,0.3,0.81,0.43c0.12,0.06,0.23,0.11,0.35,0.16c0.29,0.13,0.58,0.24,0.87,0.34c0.1,0.03,0.19,0.07,0.29,0.1
					c0.82,0.25,1.67,0.41,2.51,0.46c0.1,0.01,0.21,0.01,0.31,0.01c0.36,0.01,0.71,0.01,1.07-0.01c0.09-0.01,0.19-0.01,0.28-0.02
					c0.43-0.04,0.87-0.1,1.29-0.19c0.07-0.01,0.13-0.03,0.2-0.05c0.36-0.08,0.71-0.18,1.06-0.3c0.12-0.04,0.23-0.08,0.35-0.12
					c0.34-0.13,0.67-0.27,1-0.43c0.07-0.03,0.14-0.06,0.21-0.1c0.39-0.2,0.76-0.43,1.13-0.68c0.09-0.06,0.17-0.13,0.26-0.19
					c0.28-0.21,0.55-0.43,0.82-0.66c0.09-0.08,0.19-0.17,0.28-0.25c0.33-0.31,0.65-0.64,0.94-1.01l27.66-33.95
					C725.84,683.96,725.14,677.06,720.45,673.25z"/>
				<path class="st8" d="M288.48,377.56c0,0.2,0,0.4,0.01,0.61c0.01,0.09,0,0.19,0.01,0.28c0.02,0.27,0.07,0.53,0.12,0.79
					c0.01,0.08,0.02,0.15,0.03,0.23c0.08,0.42,0.18,0.83,0.31,1.24c0,0,0,0.01,0,0.01c0.13,0.42,0.3,0.84,0.48,1.25
					c0.02,0.04,0.03,0.08,0.05,0.12c0.03,0.07,0.07,0.13,0.11,0.2c0.05,0.1,0.11,0.2,0.17,0.3c0.14,0.27,0.28,0.54,0.44,0.8
					c0.05,0.08,0.13,0.15,0.19,0.23c0.25,0.36,0.53,0.7,0.82,1.03c0.15,0.17,0.29,0.35,0.45,0.51c0.48,0.48,1,0.93,1.58,1.33
					c0,0,0,0,0,0c0,0,0,0,0,0c0.36,0.24,0.73,0.46,1.11,0.65c0.11,0.06,0.22,0.11,0.33,0.16c0.28,0.13,0.56,0.25,0.84,0.36
					c0.12,0.05,0.24,0.09,0.37,0.13c0.3,0.1,0.59,0.19,0.89,0.26c0.1,0.02,0.2,0.05,0.3,0.08c0.84,0.18,1.69,0.26,2.54,0.24
					c0.1,0,0.21-0.01,0.31-0.01c0.35-0.02,0.71-0.05,1.06-0.1c0.09-0.01,0.19-0.02,0.28-0.04c0.43-0.08,0.85-0.17,1.27-0.3
					c0.06-0.02,0.13-0.05,0.19-0.07c0.35-0.11,0.69-0.24,1.03-0.39c0.11-0.05,0.22-0.1,0.34-0.15c0.33-0.16,0.65-0.33,0.96-0.52
					c0.07-0.04,0.13-0.07,0.2-0.12c0.37-0.23,0.72-0.49,1.06-0.78c0.08-0.07,0.16-0.14,0.24-0.22c0.26-0.23,0.52-0.47,0.76-0.73
					c0.09-0.09,0.17-0.18,0.26-0.28c0.3-0.34,0.59-0.7,0.85-1.08l8.28-12.19l0.32-0.47l15.99-23.56c3.4-5,2.09-11.81-2.91-15.2
					c0,0,0,0,0,0c0,0,0,0,0,0c0,0,0,0-0.01,0c0,0,0,0-0.01,0c-5-3.39-11.8-2.1-15.2,2.91l-8.6,12.67c0.05-0.07,0.11-0.14,0.16-0.21
					l-16.14,23.78c-0.03,0.04-0.04,0.08-0.06,0.12c-0.11,0.17-0.2,0.33-0.3,0.5c-0.07,0.12-0.15,0.23-0.21,0.34
					c-0.02,0.05-0.04,0.09-0.07,0.14c-0.05,0.09-0.07,0.18-0.12,0.26c-0.12,0.25-0.23,0.51-0.34,0.77
					c-0.05,0.13-0.11,0.25-0.16,0.38c-0.06,0.17-0.1,0.34-0.15,0.51c-0.07,0.24-0.15,0.48-0.2,0.72c-0.02,0.07-0.03,0.14-0.05,0.21
					c-0.06,0.27-0.09,0.55-0.12,0.83c-0.01,0.05-0.01,0.09-0.02,0.14c-0.02,0.19-0.05,0.38-0.07,0.57
					C288.47,377.03,288.48,377.3,288.48,377.56z"/>
				<path class="st8" d="M318.07,685.89C318.07,685.89,318.07,685.89,318.07,685.89C318.07,685.89,318.07,685.89,318.07,685.89
					C318.07,685.89,318.07,685.89,318.07,685.89c-3.86-4.68-10.74-5.34-15.41-1.49l-11.81,9.74c0.03-0.02,0.06-0.04,0.09-0.06
					l-10.33,8.51c0.03-0.02,0.05-0.05,0.08-0.07l-11.81,9.74c-0.46,0.38-0.88,0.8-1.26,1.24c-0.04,0.05-0.08,0.1-0.12,0.15
					c-0.32,0.38-0.61,0.77-0.88,1.18c-0.07,0.1-0.13,0.21-0.19,0.32c-0.22,0.37-0.42,0.75-0.59,1.14c-0.05,0.12-0.11,0.25-0.16,0.37
					c-0.16,0.4-0.29,0.8-0.4,1.21c-0.03,0.12-0.07,0.23-0.1,0.35c-0.11,0.47-0.19,0.95-0.23,1.43c-0.01,0.06-0.02,0.11-0.02,0.17
					c-0.04,0.55-0.05,1.1-0.01,1.65c0,0.07,0.02,0.13,0.03,0.2c0.03,0.39,0.07,0.78,0.15,1.16c0.01,0.08,0.04,0.15,0.06,0.22
					c0.03,0.14,0.07,0.27,0.11,0.41c0.1,0.38,0.22,0.75,0.36,1.12c0.03,0.09,0.05,0.18,0.08,0.26c0.03,0.07,0.07,0.13,0.1,0.2
					c0.14,0.32,0.3,0.64,0.47,0.95c0.07,0.13,0.14,0.27,0.22,0.4c0.27,0.44,0.56,0.86,0.89,1.27c0,0,0,0,0,0c0,0,0,0,0,0
					c3.85,4.66,10.74,5.33,15.41,1.48l33.79-27.85C321.25,697.46,321.92,690.56,318.07,685.89
					C318.07,685.89,318.07,685.89,318.07,685.89z"/>
				<path class="st8" d="M580.63,243.03l-36.24-24.57c-5-3.39-11.81-2.08-15.2,2.92c0,0,0,0,0,0c0,0,0,0,0,0c0,0,0,0,0,0
					c0,0,0,0,0,0c-3.4,5.01-2.09,11.8,2.92,15.2l12.67,8.59c-0.03-0.02-0.06-0.04-0.09-0.06l11.08,7.51
					c-0.03-0.02-0.06-0.04-0.09-0.06l12.67,8.59c0.5,0.34,1.02,0.62,1.54,0.86c0.06,0.03,0.12,0.05,0.18,0.07
					c0.45,0.2,0.91,0.37,1.38,0.5c0.12,0.03,0.24,0.06,0.36,0.09c0.42,0.11,0.84,0.19,1.26,0.24c0.14,0.02,0.27,0.03,0.41,0.05
					c0.42,0.04,0.84,0.05,1.25,0.04c0.13,0,0.26,0,0.39-0.01c0.47-0.03,0.93-0.09,1.39-0.17c0.07-0.01,0.14-0.02,0.22-0.03
					c0.54-0.11,1.06-0.26,1.58-0.45c0.07-0.03,0.13-0.06,0.2-0.09c0.36-0.14,0.72-0.29,1.07-0.47c0.06-0.03,0.12-0.08,0.18-0.11
					c0.13-0.07,0.25-0.15,0.38-0.23c0.33-0.2,0.65-0.41,0.96-0.65c0.07-0.06,0.16-0.1,0.23-0.16c0.06-0.05,0.11-0.11,0.17-0.16
					c0.27-0.22,0.52-0.46,0.77-0.72c0.11-0.11,0.22-0.21,0.33-0.33c0.34-0.38,0.67-0.78,0.96-1.21c0,0,0,0,0,0c0,0,0,0,0,0
					C586.94,253.23,585.63,246.42,580.63,243.03z"/>
				<path class="st8" d="M812.03,541.59c0.1-0.23,0.18-0.46,0.26-0.69c0.04-0.1,0.08-0.2,0.11-0.3c0.09-0.29,0.17-0.59,0.24-0.89
					c0.01-0.04,0.02-0.08,0.03-0.12c1.01-4.6-1.04-9.5-5.37-11.91l-38.26-21.3c-5.28-2.94-11.95-1.04-14.89,4.24c0,0,0,0,0,0
					c0,0,0,0,0,0c0,0,0,0,0,0c0,0,0,0,0,0c-2.95,5.29-1.05,11.94,4.24,14.89l13.37,7.45c-0.03-0.02-0.06-0.04-0.09-0.06l11.69,6.51
					c-0.03-0.02-0.06-0.03-0.1-0.05l13.37,7.45c0.53,0.29,1.07,0.52,1.62,0.72c0.06,0.02,0.12,0.04,0.18,0.06
					c0.47,0.16,0.94,0.29,1.42,0.38c0.12,0.02,0.24,0.04,0.36,0.06c0.43,0.07,0.85,0.11,1.28,0.13c0.14,0.01,0.27,0.01,0.41,0.01
					c0.42,0,0.84-0.02,1.26-0.07c0.13-0.01,0.25-0.02,0.38-0.04c0.47-0.07,0.93-0.17,1.38-0.3c0.07-0.02,0.14-0.03,0.2-0.05
					c0.52-0.16,1.04-0.35,1.53-0.59c0.06-0.03,0.12-0.07,0.18-0.1c0.35-0.17,0.7-0.36,1.03-0.57c0.06-0.04,0.12-0.09,0.18-0.13
					c0.12-0.08,0.23-0.17,0.35-0.25c0.31-0.23,0.61-0.47,0.9-0.73c0.07-0.06,0.15-0.11,0.22-0.17c0.05-0.05,0.1-0.12,0.15-0.17
					c0.25-0.25,0.48-0.51,0.71-0.78c0.1-0.12,0.2-0.23,0.3-0.36c0.31-0.41,0.6-0.83,0.86-1.29c0,0,0,0,0,0c0,0,0,0,0,0
					c0.04-0.06,0.06-0.13,0.1-0.19C811.78,542.11,811.92,541.85,812.03,541.59z"/>
				<path class="st8" d="M214.87,474.04C214.87,474.04,214.87,474.04,214.87,474.04C214.87,474.04,214.87,474.04,214.87,474.04
					C214.87,474.04,214.86,474.04,214.87,474.04c-0.01,0-0.01,0-0.01,0c-6.06,0-10.95,4.89-10.95,10.95v15.31
					c0-0.04,0.01-0.07,0.01-0.11v13.38c0-0.04-0.01-0.07-0.01-0.11v15.31c0,0.6,0.06,1.19,0.16,1.77c0.01,0.06,0.03,0.12,0.04,0.18
					c0.09,0.49,0.21,0.97,0.36,1.43c0.04,0.13,0.09,0.25,0.14,0.38c0.14,0.39,0.3,0.76,0.48,1.13c0.07,0.15,0.15,0.29,0.23,0.44
					c0.18,0.33,0.38,0.64,0.6,0.94c0.11,0.15,0.21,0.3,0.32,0.44c0.22,0.28,0.45,0.54,0.7,0.8c0.13,0.14,0.26,0.29,0.4,0.42
					c0.26,0.24,0.54,0.47,0.82,0.68c0.15,0.11,0.28,0.24,0.43,0.35c0.41,0.29,0.84,0.54,1.28,0.77c0.01,0,0.02,0.01,0.03,0.01
					c0.15,0.08,0.31,0.14,0.47,0.21c0.32,0.14,0.64,0.27,0.97,0.39c0.09,0.03,0.18,0.08,0.27,0.11c0.1,0.03,0.21,0.04,0.31,0.07
					c0.3,0.09,0.61,0.15,0.93,0.21c0.17,0.03,0.34,0.07,0.51,0.09c0.5,0.07,1,0.12,1.51,0.12c0,0,0,0,0,0c0,0,0,0,0,0
					c6.05,0,10.95-4.9,10.95-10.95v-43.79C225.82,478.95,220.92,474.04,214.87,474.04z"/>
				<path class="st8" d="M470.55,666.45C470.54,666.45,470.54,666.45,470.55,666.45C470.54,666.45,470.54,666.45,470.55,666.45
					C470.54,666.45,470.54,666.45,470.55,666.45c-0.01,0-0.01,0-0.01,0c-6.06,0-10.95,4.89-10.95,10.95v15.31
					c0-0.04,0.01-0.07,0.01-0.11v13.38c0-0.04-0.01-0.07-0.01-0.11v15.31c0,0.6,0.06,1.19,0.15,1.76c0.01,0.06,0.03,0.13,0.04,0.19
					c0.09,0.49,0.21,0.96,0.36,1.42c0.04,0.12,0.09,0.24,0.13,0.36c0.15,0.4,0.31,0.78,0.5,1.16c0.07,0.13,0.13,0.26,0.2,0.39
					c0.2,0.36,0.41,0.7,0.65,1.03c0.08,0.12,0.16,0.24,0.25,0.35c0.26,0.34,0.55,0.66,0.85,0.97c0.08,0.08,0.15,0.17,0.23,0.25
					c0.39,0.37,0.8,0.72,1.24,1.04c0.06,0.04,0.13,0.07,0.19,0.12c0.33,0.23,0.67,0.45,1.03,0.64c0.05,0.03,0.1,0.04,0.15,0.07
					c0.14,0.07,0.28,0.13,0.42,0.19c0.34,0.16,0.69,0.3,1.04,0.42c0.09,0.03,0.17,0.08,0.27,0.11c0.08,0.02,0.16,0.03,0.24,0.06
					c0.33,0.09,0.66,0.17,1,0.23c0.16,0.03,0.31,0.07,0.47,0.09c0.5,0.07,1.01,0.12,1.54,0.12c0,0,0,0,0,0c0,0,0,0,0,0
					c6.05,0,10.95-4.9,10.95-10.95V677.4C481.49,671.35,476.59,666.45,470.55,666.45z"/>
			</g>
			<g>
				<g>
					<g>
						<path class="st13" d="M289.11,555.32c-2.64-5.44-0.36-11.99,5.07-14.63l39.4-19.1c5.44-2.64,11.99-0.36,14.63,5.07
							c2.64,5.44,0.36,11.99-5.07,14.63l-39.4,19.1C298.29,563.03,291.75,560.76,289.11,555.32z"/>
					</g>
					<g class="st14">
						<path class="st8" d="M317.51,553.71l-13.77,6.68c-5.45,2.64-11.98,0.38-14.63-5.07c-2.63-5.43-0.38-11.98,5.07-14.63
							l13.77-6.68c-5.43,2.63-7.71,9.19-5.07,14.63C305.53,554.09,312.08,556.35,317.51,553.71z"/>
					</g>
					<g class="st15">
						<path class="st6" d="M319.81,528.27l13.77-6.68c5.45-2.64,11.98-0.38,14.63,5.07c2.63,5.43,0.38,11.98-5.07,14.63l-13.77,6.68
							c5.43-2.63,7.71-9.19,5.07-14.63C331.79,527.89,325.24,525.63,319.81,528.27z"/>
					</g>
					<g>
						<path class="st16" d="M289.11,555.32c-2.64-5.44-0.36-11.99,5.07-14.63l39.4-19.1c5.44-2.64,11.99-0.36,14.63,5.07
							c2.64,5.44,0.36,11.99-5.07,14.63l-39.4,19.1C298.3,563.04,291.75,560.76,289.11,555.32z"/>
					</g>
				</g>
				<g>
					<g>
						<path class="st13" d="M470.55,329.05c-4.7,3.81-11.59,3.08-15.4-1.62l-27.56-34.02c-3.81-4.7-3.08-11.59,1.62-15.4
							c4.7-3.81,11.59-3.08,15.4,1.62l27.56,34.02C475.97,318.35,475.25,325.25,470.55,329.05z"/>
					</g>
					<g class="st14">
						<path class="st8" d="M462.53,301.76l9.64,11.89c3.81,4.71,3.09,11.58-1.62,15.4c-4.69,3.8-11.58,3.09-15.4-1.62l-9.64-11.89
							c3.8,4.69,10.7,5.42,15.4,1.62C465.62,313.34,466.33,306.45,462.53,301.76z"/>
					</g>
					<g class="st15">
						<path class="st6" d="M437.23,305.31l-9.64-11.89c-3.81-4.71-3.09-11.58,1.62-15.4c4.69-3.8,11.58-3.09,15.4,1.62l9.64,11.89
							c-3.8-4.69-10.7-5.42-15.4-1.62C434.14,293.72,433.43,300.62,437.23,305.31z"/>
					</g>
					<g>
						<path class="st16" d="M470.56,329.05c-4.7,3.81-11.59,3.08-15.4-1.62l-27.56-34.02c-3.81-4.7-3.08-11.59,1.62-15.4
							c4.7-3.81,11.59-3.08,15.4,1.62l27.56,34.02C475.98,318.35,475.26,325.24,470.56,329.05z"/>
					</g>
				</g>
				<g>
					<g>
						<path class="st13" d="M648.12,834.45c-4.7,3.81-11.59,3.08-15.4-1.62l-27.56-34.02c-3.81-4.7-3.08-11.59,1.62-15.4
							c4.7-3.81,11.59-3.08,15.4,1.62l27.56,34.02C653.54,823.75,652.82,830.65,648.12,834.45z"/>
					</g>
					<g class="st14">
						<path class="st8" d="M640.1,807.16l9.63,11.89c3.81,4.71,3.09,11.58-1.62,15.4c-4.69,3.8-11.58,3.09-15.4-1.62l-9.64-11.89
							c3.8,4.69,10.7,5.42,15.4,1.62C643.19,818.75,643.9,811.85,640.1,807.16z"/>
					</g>
					<g class="st15">
						<path class="st6" d="M614.8,810.71l-9.64-11.89c-3.81-4.71-3.09-11.58,1.62-15.4c4.69-3.8,11.58-3.09,15.4,1.62l9.64,11.89
							c-3.8-4.69-10.7-5.42-15.4-1.62C611.7,799.13,610.99,806.02,614.8,810.71z"/>
					</g>
					<g>
						<path class="st16" d="M648.12,834.45c-4.7,3.81-11.59,3.08-15.4-1.62l-27.56-34.02c-3.81-4.7-3.08-11.59,1.62-15.4
							c4.7-3.81,11.59-3.08,15.4,1.62l27.56,34.02C653.55,823.75,652.82,830.65,648.12,834.45z"/>
					</g>
				</g>
				<g>
					<g>
						<path class="st13" d="M725.26,361.14c-5.58-2.33-8.22-8.74-5.89-14.32l16.85-40.42c2.33-5.58,8.74-8.22,14.32-5.89
							c5.58,2.33,8.22,8.74,5.89,14.32l-16.85,40.42C737.25,360.82,730.84,363.46,725.26,361.14z"/>
					</g>
					<g class="st14">
						<path class="st8" d="M745.47,341.11l-5.89,14.13c-2.33,5.59-8.72,8.22-14.32,5.89c-5.57-2.32-8.22-8.72-5.89-14.32l5.89-14.13
							c-2.32,5.57,0.32,11.99,5.89,14.32C736.74,349.33,743.14,346.69,745.47,341.11z"/>
					</g>
					<g class="st15">
						<path class="st6" d="M730.32,320.53l5.89-14.13c2.33-5.59,8.72-8.22,14.32-5.89c5.57,2.32,8.22,8.72,5.89,14.32l-5.89,14.13
							c2.32-5.57-0.32-11.99-5.89-14.32C739.05,312.31,732.65,314.96,730.32,320.53z"/>
					</g>
					<g>
						<path class="st16" d="M725.27,361.14c-5.58-2.33-8.22-8.74-5.89-14.32l16.85-40.42c2.33-5.58,8.74-8.22,14.32-5.89
							c5.58,2.33,8.22,8.74,5.89,14.32l-16.85,40.42C737.26,360.83,730.85,363.47,725.27,361.14z"/>
					</g>
				</g>
				<g>
					<g>
						<path class="st13" d="M633.16,608.32c-5.58-2.33-8.22-8.74-5.89-14.32l16.85-40.42c2.33-5.58,8.74-8.22,14.32-5.89
							c5.58,2.33,8.22,8.74,5.89,14.32l-16.85,40.42C645.15,608.01,638.74,610.65,633.16,608.32z"/>
					</g>
					<g class="st14">
						<path class="st8" d="M653.36,588.3l-5.89,14.13c-2.33,5.59-8.72,8.22-14.32,5.89c-5.57-2.32-8.22-8.72-5.89-14.32l5.89-14.13
							c-2.32,5.57,0.32,11.99,5.89,14.32C644.64,596.52,651.04,593.87,653.36,588.3z"/>
					</g>
					<g class="st15">
						<path class="st6" d="M638.22,567.72l5.89-14.13c2.33-5.59,8.72-8.22,14.32-5.89c5.57,2.32,8.22,8.72,5.89,14.32l-5.89,14.13
							c2.32-5.57-0.32-11.99-5.89-14.32C646.94,559.5,640.54,562.15,638.22,567.72z"/>
					</g>
					<g>
						<path class="st16" d="M633.16,608.33c-5.58-2.33-8.22-8.74-5.89-14.32l16.85-40.42c2.33-5.58,8.74-8.22,14.32-5.89
							c5.58,2.33,8.22,8.74,5.89,14.32l-16.85,40.42C645.15,608.01,638.74,610.65,633.16,608.33z"/>
					</g>
				</g>
				<g>
					<g>
						<path class="st17" d="M616.51,384.66c-6.05,0-10.95-4.9-10.95-10.95v-43.79c0-6.05,4.9-10.95,10.95-10.95
							c6.05,0,10.95,4.9,10.95,10.95v43.79C627.46,379.76,622.56,384.66,616.51,384.66z"/>
					</g>
					<g class="st14">
						<path class="st8" d="M627.47,358.4v15.31c0,6.06-4.91,10.95-10.95,10.95c-6.06,0-10.95-4.89-10.95-10.95V358.4
							c0,6.04,4.89,10.95,10.95,10.95C622.56,369.35,627.47,364.44,627.47,358.4z"/>
					</g>
					<g class="st15">
						<path class="st6" d="M605.55,345.23v-15.31c0-6.06,4.91-10.95,10.95-10.95c6.06,0,10.95,4.89,10.95,10.95v15.31
							c0-6.04-4.89-10.95-10.95-10.95C610.46,334.29,605.55,339.19,605.55,345.23z"/>
					</g>
					<g>
						<path class="st16" d="M616.52,384.66c-6.05,0-10.95-4.9-10.95-10.95v-43.79c0-6.05,4.9-10.95,10.95-10.95
							c6.05,0,10.95,4.9,10.95,10.95v43.79C627.47,379.76,622.56,384.66,616.52,384.66z"/>
					</g>
				</g>
				<g>
					<g>
						<path class="st17" d="M432.79,809.77c-3.94,4.58-10.85,5.1-15.44,1.16l-33.2-28.55c-4.58-3.94-5.1-10.85-1.16-15.44
							c3.94-4.58,10.85-5.1,15.44-1.16l33.2,28.55C436.21,798.27,436.73,805.18,432.79,809.77z"/>
					</g>
					<g class="st14">
						<path class="st8" d="M420.02,784.34l11.61,9.98c4.59,3.95,5.1,10.86,1.16,15.44c-3.95,4.59-10.84,5.11-15.44,1.16l-11.61-9.98
							c4.58,3.94,11.49,3.43,15.44-1.16C425.12,795.2,424.6,788.28,420.02,784.34z"/>
					</g>
					<g class="st15">
						<path class="st6" d="M395.75,792.37l-11.61-9.98c-4.59-3.95-5.1-10.86-1.16-15.44c3.95-4.59,10.84-5.11,15.44-1.16l11.61,9.98
							c-4.58-3.94-11.49-3.43-15.44,1.16C390.65,781.51,391.17,788.43,395.75,792.37z"/>
					</g>
					<g>
						<path class="st16" d="M432.8,809.76c-3.94,4.58-10.85,5.1-15.44,1.16l-33.2-28.55c-4.58-3.94-5.1-10.85-1.16-15.44
							c3.94-4.58,10.85-5.1,15.44-1.16l33.2,28.55C436.22,798.27,436.74,805.18,432.8,809.76z"/>
					</g>
				</g>
				<g>
					<g>
						<path class="st17" d="M670.42,709.18c-4.69-3.82-5.39-10.71-1.57-15.4l27.66-33.95c3.82-4.69,10.71-5.39,15.4-1.57
							c4.69,3.82,5.39,10.71,1.57,15.4l-27.66,33.95C682,712.29,675.11,713,670.42,709.18z"/>
					</g>
					<g class="st14">
						<path class="st8" d="M695.5,695.74l-9.67,11.87c-3.83,4.7-10.72,5.39-15.4,1.57c-4.7-3.83-5.4-10.71-1.57-15.4l9.67-11.87
							c-3.81,4.68-3.12,11.57,1.57,15.4C684.78,701.13,691.68,700.42,695.5,695.74z"/>
					</g>
					<g class="st15">
						<path class="st6" d="M686.83,671.69l9.67-11.87c3.83-4.7,10.72-5.39,15.4-1.57c4.7,3.83,5.4,10.71,1.57,15.4l-9.67,11.87
							c3.81-4.68,3.12-11.57-1.57-15.4C697.55,666.3,690.64,667.01,686.83,671.69z"/>
					</g>
					<g>
						<path class="st16" d="M670.42,709.18c-4.69-3.82-5.39-10.71-1.57-15.4l27.66-33.95c3.82-4.69,10.71-5.39,15.4-1.57
							c4.69,3.82,5.39,10.71,1.57,15.4l-27.66,33.95C682.01,712.3,675.11,713,670.42,709.18z"/>
					</g>
				</g>
				<g>
					<g>
						<path class="st17" d="M284.71,371.51c-5-3.39-6.3-10.2-2.91-15.2l24.59-36.23c3.39-5,10.2-6.3,15.2-2.91
							c5,3.4,6.3,10.2,2.91,15.2l-24.59,36.23C296.52,373.6,289.72,374.9,284.71,371.51z"/>
					</g>
					<g class="st14">
						<path class="st8" d="M308.52,355.93l-8.6,12.67c-3.4,5.01-10.21,6.3-15.2,2.91c-5.01-3.4-6.31-10.19-2.91-15.2l8.6-12.67
							c-3.39,5-2.1,11.8,2.91,15.2C298.31,362.23,305.13,360.93,308.52,355.93z"/>
					</g>
					<g class="st15">
						<path class="st6" d="M297.79,332.73l8.6-12.67c3.4-5.01,10.21-6.3,15.2-2.91c5.01,3.4,6.31,10.19,2.91,15.21l-8.6,12.67
							c3.39-5,2.1-11.8-2.91-15.21C308,326.43,301.18,327.73,297.79,332.73z"/>
					</g>
					<g>
						<path class="st16" d="M284.72,371.51c-5-3.4-6.3-10.2-2.91-15.2l24.59-36.23c3.4-5,10.2-6.3,15.2-2.91
							c5,3.4,6.3,10.2,2.91,15.2l-24.59,36.23C296.53,373.6,289.72,374.91,284.72,371.51z"/>
					</g>
				</g>
				<g>
					<g>
						<path class="st18" d="M258.85,712.69c-3.85-4.66-3.18-11.56,1.48-15.41l33.79-27.85c4.66-3.85,11.56-3.18,15.41,1.48
							c3.85,4.66,3.18,11.56-1.48,15.41l-33.79,27.85C269.6,718.01,262.7,717.35,258.85,712.69z"/>
					</g>
					<g class="st14">
						<path class="st8" d="M286.07,704.43l-11.81,9.74c-4.67,3.85-11.56,3.19-15.41-1.48c-3.84-4.66-3.19-11.56,1.48-15.41
							l11.81-9.74c-4.66,3.84-5.33,10.75-1.48,15.41C274.51,707.62,281.41,708.27,286.07,704.43z"/>
					</g>
					<g class="st15">
						<path class="st6" d="M282.31,679.16l11.81-9.74c4.67-3.85,11.56-3.19,15.41,1.48c3.84,4.66,3.19,11.56-1.48,15.41l-11.81,9.74
							c4.66-3.84,5.33-10.75,1.48-15.41C293.86,675.97,286.97,675.32,282.31,679.16z"/>
					</g>
					<g>
						<path class="st16" d="M258.85,712.69c-3.85-4.66-3.18-11.56,1.48-15.41l33.79-27.85c4.66-3.85,11.56-3.18,15.41,1.48
							c3.85,4.66,3.18,11.56-1.48,15.41l-33.79,27.85C269.6,718.02,262.7,717.35,258.85,712.69z"/>
					</g>
				</g>
				<g>
					<g>
						<path class="st18" d="M575.01,243.26c-3.39,5-10.2,6.31-15.2,2.92l-36.24-24.57c-5-3.39-6.31-10.2-2.92-15.2
							c3.39-5,10.2-6.31,15.2-2.92l36.24,24.57C577.09,231.45,578.4,238.25,575.01,243.26z"/>
					</g>
					<g class="st14">
						<path class="st8" d="M559.41,219.47l12.67,8.59c5.01,3.4,6.32,10.19,2.92,15.2c-3.39,5-10.19,6.32-15.2,2.92l-12.67-8.59
							c5,3.39,11.81,2.08,15.2-2.92C565.73,229.66,564.41,222.86,559.41,219.47z"/>
					</g>
					<g class="st15">
						<path class="st6" d="M536.23,230.2l-12.67-8.59c-5.01-3.4-6.32-10.19-2.92-15.2c3.39-5,10.19-6.32,15.2-2.92l12.67,8.59
							c-5-3.39-11.81-2.08-15.2,2.92C529.91,220.01,531.23,226.81,536.23,230.2z"/>
					</g>
					<g>
						<path class="st16" d="M575.01,243.25c-3.39,5-10.2,6.31-15.2,2.92l-36.24-24.57c-5-3.39-6.31-10.2-2.92-15.2
							c3.39-5,10.2-6.31,15.2-2.92l36.24,24.57C577.09,231.44,578.4,238.25,575.01,243.25z"/>
					</g>
				</g>
				<g>
					<g>
						<path class="st18" d="M803.01,527.59c-2.94,5.28-9.61,7.18-14.89,4.24l-38.25-21.3c-5.28-2.94-7.18-9.61-4.24-14.89
							c2.94-5.28,9.61-7.18,14.89-4.24l38.25,21.3C804.05,515.64,805.95,522.31,803.01,527.59z"/>
					</g>
					<g class="st14">
						<path class="st8" d="M785.39,505.25l13.37,7.45c5.29,2.95,7.18,9.6,4.24,14.89c-2.94,5.28-9.6,7.18-14.89,4.24l-13.37-7.45
							c5.28,2.94,11.95,1.04,14.89-4.24C792.57,514.85,790.67,508.19,785.39,505.25z"/>
					</g>
					<g class="st15">
						<path class="st6" d="M763.23,517.97l-13.37-7.45c-5.29-2.95-7.18-9.6-4.24-14.89c2.94-5.28,9.6-7.18,14.89-4.24l13.37,7.45
							c-5.28-2.94-11.95-1.04-14.89,4.24C756.05,508.38,757.96,515.04,763.23,517.97z"/>
					</g>
					<g>
						<path class="st16" d="M803.01,527.58c-2.94,5.28-9.61,7.18-14.89,4.24l-38.25-21.3c-5.28-2.94-7.18-9.61-4.24-14.89
							c2.94-5.28,9.61-7.18,14.89-4.24l38.25,21.3C804.05,515.64,805.95,522.3,803.01,527.58z"/>
					</g>
				</g>
				<g>
					<g>
						<path class="st18" d="M206.33,524.74c-6.05,0-10.95-4.9-10.95-10.95v-43.79c0-6.05,4.9-10.95,10.95-10.95
							c6.05,0,10.95,4.9,10.95,10.95v43.79C217.27,519.84,212.37,524.74,206.33,524.74z"/>
					</g>
					<g class="st14">
						<path class="st8" d="M217.27,498.48v15.31c0,6.06-4.89,10.95-10.95,10.95c-6.04,0-10.95-4.89-10.95-10.95v-15.31
							c0,6.04,4.91,10.95,10.95,10.95C212.38,509.43,217.27,504.52,217.27,498.48z"/>
					</g>
					<g class="st15">
						<path class="st6" d="M195.37,485.32v-15.31c0-6.06,4.89-10.95,10.95-10.95c6.04,0,10.95,4.89,10.95,10.95v15.31
							c0-6.04-4.91-10.95-10.95-10.95C200.26,474.37,195.37,479.28,195.37,485.32z"/>
					</g>
					<g>
						<path class="st16" d="M206.33,524.74c-6.05,0-10.95-4.9-10.95-10.95v-43.79c0-6.05,4.9-10.95,10.95-10.95
							c6.05,0,10.95,4.9,10.95,10.95v43.79C217.28,519.84,212.38,524.74,206.33,524.74z"/>
					</g>
				</g>
				<g>
					<g>
						<path class="st18" d="M462,717.15c-6.05,0-10.95-4.9-10.95-10.95v-43.79c0-6.05,4.9-10.95,10.95-10.95
							c6.05,0,10.95,4.9,10.95,10.95v43.79C472.95,712.24,468.05,717.15,462,717.15z"/>
					</g>
					<g class="st14">
						<path class="st8" d="M472.94,690.89v15.31c0,6.06-4.89,10.95-10.95,10.95c-6.04,0-10.95-4.89-10.95-10.95v-15.31
							c0,6.04,4.91,10.95,10.95,10.95C468.05,701.84,472.94,696.93,472.94,690.89z"/>
					</g>
					<g class="st15">
						<path class="st6" d="M451.05,677.72v-15.31c0-6.06,4.89-10.95,10.95-10.95c6.04,0,10.95,4.89,10.95,10.95v15.31
							c0-6.04-4.91-10.95-10.95-10.95C455.94,666.77,451.05,671.68,451.05,677.72z"/>
					</g>
					<g>
						<path class="st16" d="M462.01,717.15c-6.05,0-10.95-4.9-10.95-10.95v-43.79c0-6.05,4.9-10.95,10.95-10.95
							s10.95,4.9,10.95,10.95v43.79C472.95,712.24,468.05,717.15,462.01,717.15z"/>
					</g>
				</g>
			</g>
		</g>
	</g>
</g>
</svg>
